<?xml version="1.0"?>
<svg width="606" height="606" xmlns="http://www.w3.org/2000/svg" xmlns:svg="http://www.w3.org/2000/svg" xmlns:xlink="http://www.w3.org/1999/xlink">
 <defs>
  <radialGradient cx="0" cy="0" gradientTransform="translate(303 303) rotate(90) scale(303)" gradientUnits="userSpaceOnUse" id="paint0_radial_1_56" r="1">
   <stop stop-color="#444CE7" stop-opacity="0.81"/>
   <stop offset="1" stop-color="#444CE7" stop-opacity="0.29"/>
  </radialGradient>
  <linearGradient id="paint1_linear_1_56" x1="0.29" x2="0.6" y1="0" y2="0.99">
   <stop stop-color="#444CE7" stop-opacity="0.81"/>
   <stop offset="1" stop-opacity="0"/>
  </linearGradient>
  <symbol height="528" id="svg_5" viewBox="0 0 528 528" width="528" xmlns="http://www.w3.org/2000/svg">
   <circle cx="264" cy="264" fill="url(#svg_4)" fill-opacity="0.2" id="svg_7" r="264"/>
   <circle cx="264" cy="264" fill="url(#svg_3)" fill-opacity="0.2" id="svg_8" r="264"/>
   <defs>
    <radialGradient cx="0" cy="0" gradientTransform="translate(264 264) rotate(90) scale(264)" gradientUnits="userSpaceOnUse" id="svg_4" r="1">
     <stop stop-color="#444CE7" stop-opacity="0.81"/>
     <stop offset="1" stop-color="#444CE7" stop-opacity="0.29"/>
    </radialGradient>
    <linearGradient id="svg_3" x1="0.5" x2="0.6" y1="0" y2="0.94">
     <stop stop-color="#A4BCFD"/>
     <stop offset="1" stop-color="#444CE7" stop-opacity="0.81"/>
    </linearGradient>
   </defs>
  </symbol>
  <symbol height="441" id="svg_10" viewBox="0 0 633 441" width="633" xmlns="http://www.w3.org/2000/svg">
   <g clip-path="url(#svg_9)">
    <path d="m126.12,441c69.66,0 126.12,-4.29 126.12,-9.59c0,-5.3 -56.46,-9.59 -126.12,-9.59c-69.65,0 -126.12,4.29 -126.12,9.59c0,5.3 56.47,9.59 126.12,9.59z" fill="#E6E6E6"/>
    <path d="m96.4,97.85c21.95,-9.35 49.29,-3.43 75.99,0.69c0.25,-4.98 3.26,-11.04 0.11,-14.51c-3.84,-4.22 -3.49,-8.66 -1.18,-13.12c5.9,-11.4 -2.55,-23.53 -11.08,-33.62c-1.93,-2.27 -4.36,-4.05 -7.09,-5.2c-2.74,-1.15 -5.72,-1.64 -8.68,-1.43l-15.8,1.13c-3.85,0.28 -7.52,1.72 -10.52,4.14c-3.01,2.43 -5.2,5.71 -6.29,9.41c-3.77,5.14 -5.79,10.26 -4.52,15.36c-5.65,3.87 -6.6,8.54 -4.06,13.8c2.15,3.31 2.13,6.54 -0.1,9.68c-2.93,4 -5.17,8.45 -6.63,13.19l-0.15,0.48z" fill="#2F2E41"/>
    <path d="m618,381.24l-447.35,0c-3.97,0 -7.79,-1.59 -10.6,-4.4c-2.81,-2.82 -4.39,-6.64 -4.39,-10.62c162.16,-18.87 321.27,-18.87 477.34,0c0,3.98 -1.58,7.8 -4.39,10.62c-2.82,2.81 -6.63,4.4 -10.61,4.4z" fill="#2F2E41"/>
    <path d="m633,367.1l-477.34,-0.88l55.32,-93.21l0.26,-0.45l0,-205.42c0,-2.5 0.49,-4.96 1.45,-7.27c0.95,-2.3 2.34,-4.39 4.11,-6.16c1.76,-1.76 3.85,-3.16 6.15,-4.11c2.3,-0.96 4.76,-1.45 7.25,-1.45l325.6,0c2.49,0 4.96,0.49 7.26,1.45c2.3,0.95 4.39,2.35 6.15,4.11c1.76,1.77 3.16,3.86 4.11,6.16c0.96,2.31 1.45,4.77 1.45,7.27l0,206.84l58.23,93.12z" fill="#3F3D56"/>
    <path d="m229.77,61.4c-1.64,0.01 -3.21,0.66 -4.36,1.82c-1.16,1.16 -1.81,2.73 -1.81,4.37l0,187.31c0,1.63 0.65,3.21 1.81,4.37c1.15,1.16 2.72,1.81 4.36,1.81l329.11,0c1.64,0 3.21,-0.65 4.37,-1.81c1.16,-1.16 1.81,-2.74 1.81,-4.37l0,-187.31c0,-1.64 -0.65,-3.21 -1.81,-4.37c-1.16,-1.16 -2.73,-1.81 -4.37,-1.82l-329.11,0z" fill="white"/>
    <path d="m231.15,285.82c-0.5,0 -1,0.14 -1.43,0.42c-0.42,0.27 -0.76,0.66 -0.97,1.12l-17.05,37.11c-0.19,0.4 -0.27,0.85 -0.24,1.29c0.03,0.44 0.18,0.87 0.42,1.25c0.24,0.37 0.56,0.68 0.95,0.89c0.39,0.22 0.83,0.33 1.27,0.33l358.49,0c0.45,0 0.89,-0.12 1.28,-0.34c0.4,-0.22 0.73,-0.54 0.97,-0.92c0.23,-0.39 0.37,-0.82 0.39,-1.28c0.02,-0.45 -0.08,-0.9 -0.28,-1.3l-18.53,-37.11c-0.22,-0.44 -0.55,-0.81 -0.97,-1.07c-0.42,-0.26 -0.9,-0.39 -1.39,-0.39l-322.91,0z" fill="#2F2E41"/>
    <path d="m393,58.31c2.2,0 3.98,-1.78 3.98,-3.97c0,-2.2 -1.78,-3.98 -3.98,-3.98c-2.19,0 -3.97,1.78 -3.97,3.98c0,2.19 1.78,3.97 3.97,3.97z" fill="white"/>
    <path d="m357.77,335.3c-0.58,0 -1.15,0.19 -1.61,0.54c-0.46,0.36 -0.79,0.85 -0.95,1.42l-4.27,15.9c-0.11,0.39 -0.12,0.8 -0.04,1.2c0.08,0.4 0.24,0.78 0.49,1.1c0.25,0.32 0.57,0.59 0.93,0.77c0.37,0.17 0.77,0.27 1.17,0.27l81.32,0c0.42,0 0.84,-0.1 1.21,-0.3c0.38,-0.19 0.7,-0.47 0.95,-0.81c0.24,-0.35 0.4,-0.75 0.46,-1.16c0.06,-0.42 0.02,-0.85 -0.12,-1.25l-5.5,-15.9c-0.18,-0.52 -0.51,-0.97 -0.96,-1.29c-0.45,-0.32 -0.99,-0.49 -1.54,-0.49l-71.54,0z" fill="#2F2E41"/>
    <path d="m574.77,269.47l0,3.54l-363.79,0l0.27,-0.45l0,-3.09l363.52,0z" fill="#2F2E41"/>
    <path d="m564.62,123.69c34.11,0 61.76,-27.69 61.76,-61.84c0,-34.16 -27.65,-61.85 -61.76,-61.85c-34.11,0 -61.76,27.69 -61.76,61.85c0,34.15 27.65,61.84 61.76,61.84z" fill="#A4BCFD"/>
    <path d="m590.21,88.79l-51.18,0c-0.93,0 -1.83,-0.37 -2.49,-1.03c-0.66,-0.67 -1.04,-1.56 -1.04,-2.5l0,-30.92c0,-0.94 0.38,-1.84 1.04,-2.5c0.66,-0.66 1.56,-1.04 2.49,-1.04l51.18,0c0.93,0 1.83,0.38 2.49,1.04c0.66,0.66 1.04,1.56 1.04,2.5l0,30.92c0,0.94 -0.38,1.83 -1.04,2.5c-0.66,0.66 -1.56,1.03 -2.49,1.03zm-51.18,-34.45l0,30.92l51.18,0l0,-30.92l-51.18,0z" fill="white"/>
    <path d="m580.5,54.34l-31.76,0l0,-14.14c0,-10.24 6.68,-17.67 15.88,-17.67c9.2,0 15.88,7.43 15.88,17.67l0,14.14zm-28.23,-3.54l24.7,0l0,-10.6c0,-8.32 -5.08,-14.14 -12.35,-14.14c-7.27,0 -12.35,5.82 -12.35,14.14l0,10.6z" fill="white"/>
    <path d="m564.62,72.45c1.95,0 3.53,-1.58 3.53,-3.54c0,-1.95 -1.58,-3.53 -3.53,-3.53c-1.95,0 -3.53,1.58 -3.53,3.53c0,1.96 1.58,3.54 3.53,3.54z" fill="white"/>
    <path d="m521.5,197.55l-254.35,0c-1.25,0 -2.44,-0.5 -3.33,-1.39c-0.88,-0.88 -1.38,-2.08 -1.38,-3.33l0,-63.18c0,-1.25 0.5,-2.45 1.38,-3.33c0.89,-0.88 2.08,-1.38 3.33,-1.38l254.35,0c1.25,0 2.45,0.5 3.33,1.38c0.89,0.88 1.38,2.08 1.38,3.33l0,63.18c0,1.25 -0.49,2.45 -1.38,3.33c-0.88,0.89 -2.08,1.39 -3.33,1.39zm-254.35,-70.73c-0.75,0 -1.46,0.3 -1.99,0.83c-0.53,0.53 -0.83,1.25 -0.83,2l0,63.18c0,0.75 0.3,1.47 0.83,2c0.53,0.53 1.24,0.83 1.99,0.83l254.35,0c0.75,0 1.47,-0.3 2,-0.83c0.53,-0.53 0.83,-1.25 0.83,-2l0,-63.18c0,-0.75 -0.3,-1.47 -0.83,-2c-0.53,-0.53 -1.25,-0.83 -2,-0.83l-254.35,0z" fill="#E6E6E6"/>
    <path d="m306.67,178.03c10.6,0 19.19,-8.6 19.19,-19.21c0,-10.61 -8.59,-19.22 -19.19,-19.22c-10.59,0 -19.18,8.61 -19.18,19.22c0,10.61 8.59,19.21 19.18,19.21z" fill="#E6E6E6"/>
    <path d="m350.99,146.01c-0.42,0 -0.84,0.08 -1.23,0.24c-0.39,0.16 -0.74,0.4 -1.04,0.69c-0.3,0.3 -0.53,0.66 -0.69,1.05c-0.16,0.38 -0.25,0.8 -0.25,1.22c0,0.42 0.09,0.84 0.25,1.23c0.16,0.39 0.39,0.74 0.69,1.04c0.3,0.3 0.65,0.53 1.04,0.69c0.39,0.16 0.81,0.24 1.23,0.24l150.75,0c0.85,0 1.66,-0.33 2.26,-0.93c0.6,-0.6 0.94,-1.42 0.94,-2.27c0,-0.85 -0.34,-1.66 -0.94,-2.26c-0.6,-0.6 -1.41,-0.94 -2.26,-0.94l-150.75,0z" fill="#E6E6E6"/>
    <path d="m350.99,165.22c-0.85,0 -1.67,0.34 -2.26,0.94c-0.6,0.6 -0.94,1.41 -0.94,2.26c0,0.85 0.34,1.67 0.94,2.27c0.59,0.6 1.41,0.94 2.26,0.94l64.87,0c0.84,0 1.66,-0.34 2.26,-0.94c0.6,-0.6 0.93,-1.42 0.93,-2.27c0,-0.85 -0.33,-1.66 -0.93,-2.26c-0.6,-0.6 -1.42,-0.94 -2.26,-0.94l-64.87,0z" fill="#E6E6E6"/>
    <path d="m210.35,166.52l-47.02,25.03l-0.59,-20.86c15.35,-2.57 29.95,-7.03 43.45,-14.3l4.91,-12.17c0.54,-1.32 1.41,-2.49 2.53,-3.38c1.12,-0.88 2.45,-1.46 3.87,-1.68c1.41,-0.21 2.85,-0.06 4.18,0.45c1.34,0.52 2.51,1.36 3.42,2.47c1.33,1.62 1.99,3.68 1.86,5.77c-0.14,2.08 -1.06,4.04 -2.58,5.47l-14.03,13.2z" fill="#FFB8B8"/>
    <path d="m95.47,311.04c-0.35,-1.27 -0.42,-2.58 -0.22,-3.87c0.21,-1.29 0.68,-2.53 1.39,-3.62l10.33,-15.87c2.44,-3.76 6.19,-6.47 10.52,-7.61c4.32,-1.14 8.92,-0.64 12.89,1.42c-4.34,7.4 -3.73,13.89 1.5,19.53c-8.12,3.98 -15.63,9.1 -22.3,15.23c-1.21,0.82 -2.61,1.35 -4.07,1.53c-1.46,0.18 -2.94,0.01 -4.32,-0.5c-1.39,-0.51 -2.63,-1.34 -3.62,-2.43c-0.99,-1.09 -1.72,-2.39 -2.1,-3.81z" fill="#2F2E41"/>
    <path d="m212.49,290.28c-1.56,2.61 -3.77,4.77 -6.4,6.28c-2.64,1.51 -5.62,2.31 -8.66,2.34l-68.62,0.52l-2.97,-17.29l30.35,-8.94l-25.59,-19.66l27.97,-32.78l50.81,47.42c2.97,2.77 4.9,6.48 5.47,10.5c0.56,4.03 -0.27,8.13 -2.36,11.61z" fill="#2F2E41"/>
    <path d="m118.1,408.48l-16.07,0c-14.43,-99.03 -29.11,-198.34 14.28,-235.41l51.19,8.35l-6.55,43.5l-28.57,32.78l-14.28,150.78z" fill="#2F2E41"/>
    <path d="m132.23,430.91c-1.26,0.35 -2.58,0.42 -3.87,0.22c-1.28,-0.2 -2.52,-0.68 -3.61,-1.39l-17.44,-2.35c-3.75,-2.45 -6.46,-6.2 -7.6,-10.53c-1.15,-4.33 -0.64,-8.94 1.42,-12.92c7.39,4.35 13.87,3.74 19.5,-1.5c3.98,8.05 10.54,7.56 16.8,14.34c0.83,1.21 1.35,2.61 1.54,4.08c0.18,1.46 0,2.94 -0.5,4.33c-0.51,1.38 -1.35,2.62 -2.43,3.62c-1.09,0.99 -2.39,1.71 -3.81,2.1z" fill="#2F2E41"/>
    <path d="m156.19,106.92l-29.76,-7.15c4.95,-10.13 5.35,-21.4 2.98,-33.38l20.24,-0.59c0.63,14.89 2.55,28.79 6.54,41.12z" fill="#FFB8B8"/>
    <path d="m164.37,199.36c-21.66,14.78 -36.97,0.51 -48.65,-21.52c1.62,-13.48 -1,-29.61 -5.87,-47.13c-2.17,-7.73 -1.36,-15.99 2.26,-23.15c3.62,-7.17 9.8,-12.71 17.3,-15.54l25.59,10.73c21.73,17.74 26.01,36.95 17.86,57.21l-8.49,39.4z" fill="#A4BCFD"/>
    <path d="m102.03,121.82l-23.81,12.52l42.26,25.03l5.88,14.52c0.39,0.97 0.58,2.01 0.56,3.05c-0.02,1.05 -0.25,2.08 -0.69,3.03c-0.43,0.95 -1.05,1.81 -1.82,2.51c-0.77,0.7 -1.68,1.24 -2.67,1.58c-1.12,0.39 -2.32,0.51 -3.5,0.36c-1.17,-0.15 -2.3,-0.58 -3.29,-1.24c-0.98,-0.66 -1.8,-1.54 -2.39,-2.57c-0.59,-1.03 -0.94,-2.19 -1.01,-3.37l-0.59,-10.13l-53.71,-17.74c-1.81,-0.6 -3.46,-1.61 -4.82,-2.94c-1.37,-1.33 -2.41,-2.95 -3.06,-4.75c-0.94,-2.61 -0.99,-5.47 -0.14,-8.12c0.86,-2.64 2.56,-4.93 4.85,-6.51l43.19,-29.66l4.76,24.43z" fill="#FFB8B8"/>
    <path d="m125.84,124.2c-9.93,-4.35 -18.96,0.38 -30.36,4.18l-1.78,-31.59c11.32,-6.04 22.1,-7.67 32.14,-2.98l0,30.39z" fill="#A4BCFD"/>
    <path d="m137.72,81.44c10.49,0 19,-8.51 19,-19.02c0,-10.51 -8.51,-19.03 -19,-19.03c-10.5,0 -19,8.52 -19,19.03c0,10.51 8.5,19.02 19,19.02z" fill="#FFB8B8"/>
    <path d="m160.44,60.02c-18.81,1.84 -33.14,-1.24 -42.3,-10.01l0,-7.06l40.71,0l1.59,17.07z" fill="#2F2E41"/>
   </g>
   <defs>
    <clipPath id="svg_9">
     <rect fill="white" height="441" width="633"/>
    </clipPath>
   </defs>
  </symbol>
 </defs>
 <g class="layer">
  <title>Layer 1</title>
  <circle cx="303" cy="303" fill="url(#paint0_radial_1_56)" fill-opacity="0.2" id="svg_1" r="303"/>
  <circle cx="303" cy="303" fill="url(#paint1_linear_1_56)" fill-opacity="0.2" id="svg_2" r="303" transform="matrix(1 0 0 1 0 0)"/>
  <use id="svg_6" transform="matrix(1.03479 0 0 1.03479 -246.76 -205.41)" x="266.82" xlink:href="#svg_5" y="227.82"/>
  <use id="svg_11" transform="matrix(0.943298 0 0 0.943298 955.938 -88.2401)" x="-1006.04" xlink:href="#svg_10" y="177.24"/>
 </g>
</svg>