<?xml version="1.0"?>
<svg width="606" height="606" xmlns="http://www.w3.org/2000/svg" xmlns:svg="http://www.w3.org/2000/svg" xmlns:xlink="http://www.w3.org/1999/xlink">
 <defs>
  <radialGradient cx="0" cy="0" gradientTransform="translate(303 303) rotate(90) scale(303)" gradientUnits="userSpaceOnUse" id="paint0_radial_1_56" r="1">
   <stop stop-color="#444CE7" stop-opacity="0.81"/>
   <stop offset="1" stop-color="#444CE7" stop-opacity="0.29"/>
  </radialGradient>
  <linearGradient id="paint1_linear_1_56" x1="0.29" x2="0.6" y1="0" y2="0.99">
   <stop stop-color="#444CE7" stop-opacity="0.81"/>
   <stop offset="1" stop-opacity="0"/>
  </linearGradient>
  <symbol height="528" id="svg_5" viewBox="0 0 528 528" width="528" xmlns="http://www.w3.org/2000/svg">
   <circle cx="264" cy="264" fill="url(#svg_4)" fill-opacity="0.2" id="svg_7" r="264"/>
   <circle cx="264" cy="264" fill="url(#svg_3)" fill-opacity="0.2" id="svg_8" r="264"/>
   <defs>
    <radialGradient cx="0" cy="0" gradientTransform="translate(264 264) rotate(90) scale(264)" gradientUnits="userSpaceOnUse" id="svg_4" r="1">
     <stop stop-color="#444CE7" stop-opacity="0.81"/>
     <stop offset="1" stop-color="#444CE7" stop-opacity="0.29"/>
    </radialGradient>
    <linearGradient id="svg_3" x1="0.5" x2="0.6" y1="0" y2="0.94">
     <stop stop-color="#A4BCFD"/>
     <stop offset="1" stop-color="#444CE7" stop-opacity="0.81"/>
    </linearGradient>
   </defs>
  </symbol>
  <symbol height="369" id="svg_10" viewBox="0 0 586 369" width="586" xmlns="http://www.w3.org/2000/svg">
   <g clip-path="url(#svg_9)">
    <path d="m586,151.55l-0.99,0l0,-27.16c0,-2.06 -0.41,-4.11 -1.19,-6.02c-0.79,-1.9 -1.95,-3.64 -3.41,-5.1c-1.45,-1.46 -3.18,-2.61 -5.09,-3.4c-1.9,-0.79 -3.94,-1.2 -6,-1.2l-57.44,0c-2.06,0 -4.1,0.41 -6.01,1.2c-1.9,0.79 -3.63,1.94 -5.09,3.4c-1.45,1.46 -2.61,3.2 -3.4,5.1c-0.79,1.91 -1.19,3.96 -1.19,6.02l0,149.01c0,2.06 0.4,4.11 1.19,6.02c0.79,1.9 1.95,3.64 3.4,5.1c1.46,1.46 3.19,2.61 5.09,3.4c1.91,0.79 3.95,1.2 6.01,1.2l57.44,0c2.06,0 4.1,-0.41 6,-1.2c1.91,-0.79 3.64,-1.94 5.09,-3.4c1.46,-1.46 2.62,-3.2 3.41,-5.1c0.78,-1.91 1.19,-3.96 1.19,-6.02l0,-102.51l0.99,0l0,-19.34z" fill="#3F3D56"/>
    <path d="m581.67,125.31l0,148.8c0,3.11 -1.23,6.1 -3.43,8.3c-2.2,2.2 -5.18,3.44 -8.29,3.44l-57.71,0c-1.54,0 -3.07,-0.3 -4.49,-0.9c-1.42,-0.58 -2.71,-1.45 -3.8,-2.54c-1.09,-1.09 -1.95,-2.39 -2.54,-3.81c-0.59,-1.42 -0.89,-2.95 -0.89,-4.49l0,-148.8c0,-3.11 1.23,-6.09 3.43,-8.29c2.2,-2.21 5.18,-3.44 8.29,-3.44l7,0c-0.35,0.84 -0.48,1.76 -0.38,2.67c0.09,0.91 0.41,1.78 0.91,2.54c0.51,0.76 1.2,1.38 2.01,1.81c0.8,0.43 1.7,0.66 2.61,0.66l32.91,0c0.91,0 1.81,-0.22 2.62,-0.65c0.81,-0.43 1.49,-1.05 2,-1.81c0.51,-0.76 0.83,-1.64 0.92,-2.55c0.09,-0.91 -0.04,-1.83 -0.39,-2.67l7.5,0c3.11,0 6.09,1.23 8.29,3.44c2.19,2.2 3.43,5.18 3.43,8.29z" fill="#D0CDE1"/>
    <path d="m570.75,189.76l-67.1,0l0,18.13l67.1,0l0,-18.13z" fill="#A4BCFD"/>
    <path d="m573.41,204.69l-64.97,0c-0.42,0 -0.83,-0.17 -1.13,-0.47c-0.3,-0.3 -0.46,-0.7 -0.46,-1.13l0,-16c0,-0.43 0.16,-0.83 0.46,-1.13c0.3,-0.3 0.71,-0.47 1.13,-0.47l64.97,0c0.42,0 0.83,0.17 1.13,0.47c0.3,0.3 0.46,0.7 0.46,1.13l0,16c0,0.43 -0.16,0.83 -0.46,1.13c-0.3,0.3 -0.71,0.47 -1.13,0.47zm-64.97,-18.13c-0.14,0 -0.27,0.05 -0.37,0.15c-0.1,0.1 -0.16,0.24 -0.16,0.38l0,16c0,0.15 0.06,0.28 0.16,0.38c0.1,0.1 0.23,0.16 0.37,0.16l64.97,0c0.14,0 0.27,-0.06 0.37,-0.16c0.1,-0.1 0.16,-0.23 0.16,-0.38l0,-16c0,-0.14 -0.06,-0.28 -0.16,-0.38c-0.1,-0.1 -0.23,-0.15 -0.37,-0.15l-64.97,0z" fill="#3F3D56"/>
    <path d="m519.63,199.89l-8.52,0l0,1.07l8.52,0l0,-1.07z" fill="#3F3D56"/>
    <path d="m531.34,199.89l-8.52,0l0,1.07l8.52,0l0,-1.07z" fill="#3F3D56"/>
    <path d="m543.05,199.89l-8.51,0l0,1.07l8.51,0l0,-1.07z" fill="#3F3D56"/>
    <path d="m554.77,199.89l-8.52,0l0,1.07l8.52,0l0,-1.07z" fill="#3F3D56"/>
    <path d="m566.49,199.89l-8.52,0l0,1.07l8.52,0l0,-1.07z" fill="#3F3D56"/>
    <path d="m581.67,258.98l0,15.13c0,3.11 -1.23,6.1 -3.43,8.3c-2.2,2.2 -5.18,3.44 -8.29,3.44l-57.71,0c-1.54,0 -3.07,-0.3 -4.49,-0.9c-1.42,-0.58 -2.71,-1.45 -3.8,-2.54c-1.09,-1.09 -1.95,-2.39 -2.54,-3.81c-0.59,-1.42 -0.89,-2.95 -0.89,-4.49l0,-69.6l81.15,54.47z" fill="black" opacity="0.1"/>
    <path d="m305.04,245.24l-251.87,0l0,123.76l251.87,0l0,-123.76z" fill="#D0CDE1"/>
    <path d="m241,369l-186.77,0c-0.28,0 -0.55,-0.11 -0.75,-0.31c-0.2,-0.2 -0.31,-0.47 -0.31,-0.76l0,-121.63c0,-0.28 0.11,-0.55 0.31,-0.75c0.2,-0.2 0.47,-0.31 0.75,-0.31l2.37,0l184.4,123.76z" fill="black" opacity="0.1"/>
    <path d="m560.1,261.77l-390.32,0l0,1.07l390.32,0l0,-1.07z" fill="#3F3D56"/>
    <path d="m293.18,2.3l-111.55,0l0,-2.3l-50.58,0l0,2.3l-112.01,0c-0.99,0 -1.97,0.2 -2.89,0.58c-0.91,0.38 -1.74,0.94 -2.44,1.64c-0.7,0.7 -1.26,1.53 -1.64,2.45c-0.38,0.92 -0.57,1.9 -0.57,2.89l0,153.03c0,2.01 0.79,3.93 2.21,5.35c1.41,1.41 3.33,2.21 5.33,2.21l274.14,0c2,0 3.92,-0.8 5.34,-2.21c1.41,-1.42 2.21,-3.34 2.21,-5.35l0,-153.03c0,-0.99 -0.2,-1.97 -0.58,-2.89c-0.38,-0.92 -0.93,-1.75 -1.63,-2.45c-0.7,-0.7 -1.53,-1.26 -2.45,-1.64c-0.92,-0.38 -1.9,-0.58 -2.89,-0.58z" fill="#3F3D56"/>
    <path d="m290.61,15.66l-269,0l0,152.03l269,0l0,-152.03z" fill="#D0CDE1"/>
    <path d="m155.88,11.52c1.53,0 2.76,-1.24 2.76,-2.77c0,-1.52 -1.23,-2.76 -2.76,-2.76c-1.52,0 -2.76,1.24 -2.76,2.76c0,1.53 1.24,2.77 2.76,2.77z" fill="#A4BCFD"/>
    <path d="m101.63,72.39l-6.39,0c-0.43,0 -0.83,-0.16 -1.13,-0.46c-0.3,-0.3 -0.47,-0.71 -0.47,-1.14l0,-6.4c0,-0.42 0.17,-0.83 0.47,-1.13c0.3,-0.3 0.7,-0.47 1.13,-0.47l6.39,0c0.42,0 0.82,0.17 1.12,0.47c0.3,0.3 0.47,0.71 0.47,1.13l0,6.4c0,0.43 -0.17,0.84 -0.47,1.14c-0.3,0.3 -0.7,0.46 -1.12,0.46zm-6.39,-8.53c-0.15,0 -0.28,0.06 -0.38,0.16c-0.1,0.1 -0.16,0.23 -0.16,0.37l0,6.4c0,0.15 0.06,0.28 0.16,0.38c0.1,0.1 0.23,0.16 0.38,0.16l6.39,0c0.14,0 0.27,-0.06 0.37,-0.16c0.1,-0.1 0.16,-0.23 0.16,-0.38l0,-6.4c0,-0.14 -0.06,-0.27 -0.16,-0.37c-0.1,-0.1 -0.23,-0.16 -0.37,-0.16l-6.39,0z" fill="#3F3D56"/>
    <path d="m215.58,71.33l-121.41,0l0,1.06l121.41,0l0,-1.06z" fill="#3F3D56"/>
    <path d="m212.38,100.67l-28.22,0l0,8.53l28.22,0l0,-8.53z" fill="#A4BCFD"/>
    <path d="m214.51,107.07l-26.09,0c-0.42,0 -0.83,-0.17 -1.13,-0.47c-0.3,-0.3 -0.47,-0.71 -0.47,-1.13l0,-6.4c0,-0.43 0.17,-0.83 0.47,-1.13c0.3,-0.3 0.71,-0.47 1.13,-0.47l26.09,0c0.43,0 0.83,0.17 1.13,0.47c0.3,0.3 0.47,0.7 0.47,1.13l0,6.4c0,0.42 -0.17,0.83 -0.47,1.13c-0.3,0.3 -0.7,0.47 -1.13,0.47zm-26.09,-8.54c-0.14,0 -0.28,0.06 -0.38,0.16c-0.1,0.1 -0.15,0.24 -0.15,0.38l0,6.4c0,0.14 0.05,0.28 0.15,0.38c0.1,0.1 0.24,0.15 0.38,0.15l26.09,0c0.14,0 0.28,-0.05 0.38,-0.15c0.1,-0.1 0.15,-0.24 0.15,-0.38l0,-6.4c0,-0.14 -0.05,-0.28 -0.15,-0.38c-0.1,-0.1 -0.24,-0.16 -0.38,-0.16l-26.09,0z" fill="#3F3D56"/>
    <path d="m428.04,110.27l-53.25,0l0,37.34l53.25,0l0,-37.34z" fill="#A4BCFD"/>
    <path d="m433.36,144.68l-51.11,0c-0.57,0 -1.11,-0.23 -1.51,-0.63c-0.4,-0.4 -0.62,-0.94 -0.62,-1.51l0,-35.2c0,-0.57 0.22,-1.11 0.62,-1.51c0.4,-0.4 0.94,-0.63 1.51,-0.63l51.11,0c0.57,0 1.11,0.23 1.51,0.63c0.4,0.4 0.62,0.94 0.62,1.51l0,35.2c0,0.57 -0.22,1.11 -0.62,1.51c-0.4,0.4 -0.94,0.63 -1.51,0.63zm-51.11,-37.34l0,35.2l51.12,0l-0.01,-35.2l-51.11,0z" fill="#3F3D56"/>
    <path d="m427.51,106l-2.13,0c0,-4.67 -1.86,-9.14 -5.15,-12.45c-3.3,-3.3 -7.77,-5.15 -12.43,-5.15c-4.66,0 -9.13,1.85 -12.42,5.15c-3.3,3.31 -5.15,7.78 -5.15,12.45l-2.13,0c0,-5.23 2.08,-10.25 5.77,-13.95c3.7,-3.71 8.71,-5.79 13.93,-5.79c5.23,0 10.24,2.08 13.94,5.79c3.69,3.7 5.77,8.72 5.77,13.95z" fill="#3F3D56"/>
    <path d="m413.13,120.67c0,-0.93 -0.24,-1.84 -0.7,-2.65c-0.46,-0.8 -1.12,-1.48 -1.92,-1.95c-0.8,-0.47 -1.71,-0.73 -2.63,-0.74c-0.93,-0.01 -1.84,0.22 -2.66,0.67c-0.81,0.45 -1.49,1.11 -1.97,1.9c-0.48,0.79 -0.75,1.7 -0.77,2.63c-0.02,0.93 0.2,1.85 0.63,2.66c0.44,0.82 1.09,1.51 1.88,2l0,5.73c0,0.37 0.07,0.74 0.21,1.08c0.14,0.34 0.35,0.65 0.61,0.92c0.26,0.26 0.57,0.47 0.92,0.61c0.34,0.14 0.7,0.21 1.07,0.21c0.75,0 1.47,-0.3 2,-0.82c0.53,-0.53 0.82,-1.25 0.82,-2l0,-5.73c0.77,-0.47 1.4,-1.14 1.84,-1.93c0.44,-0.79 0.67,-1.68 0.67,-2.59z" fill="#3F3D56"/>
    <path d="m159.93,300.18l-8.52,0l0,1.07l8.52,0l0,-1.07z" fill="#3F3D56"/>
    <path d="m171.65,300.18l-8.52,0l0,1.07l8.52,0l0,-1.07z" fill="#3F3D56"/>
    <path d="m183.36,300.18l-8.52,0l0,1.07l8.52,0l0,-1.07z" fill="#3F3D56"/>
    <path d="m195.08,300.18l-8.52,0l0,1.07l8.52,0l0,-1.07z" fill="#3F3D56"/>
    <path d="m206.79,300.18l-8.52,0l0,1.07l8.52,0l0,-1.07z" fill="#3F3D56"/>
    <path d="m316.22,359.93l-249.74,0c-0.56,0 -1.1,-0.22 -1.5,-0.62c-0.4,-0.4 -0.63,-0.95 -0.63,-1.51l0,-121.63c0,-0.57 0.23,-1.11 0.63,-1.51c0.4,-0.4 0.94,-0.63 1.5,-0.63l249.74,0c0.56,0 1.1,0.23 1.5,0.63c0.4,0.4 0.63,0.94 0.63,1.51l0,121.63c0,0.56 -0.23,1.11 -0.63,1.51c-0.4,0.4 -0.94,0.62 -1.5,0.62zm-249.74,-123.76l0,121.63l249.74,0l0,-121.63l-249.74,0z" fill="#3F3D56"/>
    <path d="m77.66,254.31c1.77,0 3.2,-1.44 3.2,-3.21c0,-1.76 -1.43,-3.2 -3.2,-3.2c-1.76,0 -3.19,1.44 -3.19,3.2c0,1.77 1.43,3.21 3.19,3.21z" fill="#3F3D56"/>
    <path d="m88.85,254.31c1.76,0 3.19,-1.44 3.19,-3.21c0,-1.76 -1.43,-3.2 -3.19,-3.2c-1.77,0 -3.2,1.44 -3.2,3.2c0,1.77 1.43,3.21 3.2,3.21z" fill="#3F3D56"/>
    <path d="m100.03,254.31c1.76,0 3.19,-1.44 3.19,-3.21c0,-1.76 -1.43,-3.2 -3.19,-3.2c-1.77,0 -3.2,1.44 -3.2,3.2c0,1.77 1.43,3.21 3.2,3.21z" fill="#3F3D56"/>
    <path d="m215.04,307.65l-71.88,0c-0.42,0 -0.83,-0.17 -1.13,-0.47c-0.3,-0.3 -0.47,-0.7 -0.47,-1.13l0,-18.14c0,-0.42 0.17,-0.83 0.47,-1.13c0.3,-0.3 0.71,-0.47 1.13,-0.47l71.88,0c0.43,0 0.83,0.17 1.13,0.47c0.3,0.3 0.47,0.71 0.47,1.13l0,18.14c0,0.43 -0.17,0.83 -0.47,1.13c-0.3,0.3 -0.7,0.47 -1.13,0.47zm-71.88,-20.27c-0.14,0 -0.28,0.06 -0.38,0.16c-0.1,0.1 -0.15,0.23 -0.15,0.37l0,18.14c0,0.14 0.05,0.28 0.15,0.38c0.1,0.1 0.24,0.15 0.38,0.15l71.88,0c0.15,0 0.28,-0.05 0.38,-0.15c0.1,-0.1 0.16,-0.24 0.16,-0.38l0,-18.14c0,-0.14 -0.06,-0.27 -0.16,-0.37c-0.1,-0.1 -0.23,-0.16 -0.38,-0.16l-71.88,0z" fill="#3F3D56"/>
    <path d="m233.15,308.19c5.29,0 9.58,-4.3 9.58,-9.61c0,-5.3 -4.29,-9.6 -9.58,-9.6c-5.29,0 -9.59,4.3 -9.59,9.6c0,5.31 4.3,9.61 9.59,9.61z" fill="#A4BCFD"/>
    <path d="m236.34,307.12c-2,0 -3.95,-0.6 -5.62,-1.71c-1.66,-1.11 -2.96,-2.7 -3.72,-4.55c-0.77,-1.85 -0.97,-3.89 -0.58,-5.86c0.39,-1.96 1.36,-3.77 2.77,-5.19c1.41,-1.41 3.22,-2.38 5.18,-2.77c1.96,-0.39 4,-0.19 5.85,0.58c1.84,0.76 3.43,2.06 4.54,3.73c1.11,1.67 1.7,3.63 1.7,5.63c0,2.69 -1.07,5.27 -2.96,7.17c-1.9,1.9 -4.47,2.97 -7.16,2.97zm0,-19.21c-1.79,0 -3.54,0.53 -5.03,1.53c-1.48,1 -2.64,2.42 -3.33,4.07c-0.68,1.66 -0.86,3.48 -0.51,5.24c0.34,1.76 1.21,3.38 2.47,4.64c1.27,1.27 2.88,2.14 4.64,2.49c1.75,0.35 3.57,0.17 5.23,-0.52c1.65,-0.68 3.07,-1.85 4.06,-3.34c1,-1.49 1.53,-3.24 1.53,-5.04c-0.01,-2.4 -0.96,-4.71 -2.66,-6.41c-1.7,-1.7 -4,-2.65 -6.4,-2.66z" fill="#3F3D56"/>
    <path d="m236.49,300.77l-5.16,-5.17l1.51,-1.51l3.36,3.37l9.39,-13.36l1.74,1.23l-10.84,15.44z" fill="#3F3D56"/>
    <path d="m230.97,167.69l-209.36,0l0,-140.51l209.36,140.51z" fill="black" opacity="0.1"/>
    <path d="m308.28,164.92l-26.25,0l0,-1.89c0,-0.05 -0.01,-0.1 -0.03,-0.15c-0.02,-0.04 -0.05,-0.09 -0.08,-0.12c-0.04,-0.03 -0.08,-0.06 -0.12,-0.08c-0.05,-0.02 -0.1,-0.03 -0.15,-0.03l-9,0c-0.05,0 -0.1,0.01 -0.14,0.03c-0.05,0.02 -0.09,0.05 -0.12,0.08c-0.04,0.03 -0.07,0.08 -0.08,0.12c-0.02,0.05 -0.03,0.1 -0.03,0.15l0,1.89l-5.63,0l0,-1.89c0,-0.05 -0.01,-0.1 -0.03,-0.15c-0.02,-0.04 -0.04,-0.09 -0.08,-0.12c-0.03,-0.03 -0.07,-0.06 -0.12,-0.08c-0.04,-0.02 -0.09,-0.03 -0.14,-0.03l-9,0c-0.05,0 -0.1,0.01 -0.15,0.03c-0.04,0.02 -0.08,0.05 -0.12,0.08c-0.03,0.03 -0.06,0.08 -0.08,0.12c-0.02,0.05 -0.03,0.1 -0.03,0.15l0,1.89l-5.62,0l0,-1.89c0,-0.05 -0.01,-0.1 -0.03,-0.15c-0.02,-0.04 -0.05,-0.09 -0.09,-0.12c-0.03,-0.03 -0.07,-0.06 -0.12,-0.08c-0.04,-0.02 -0.09,-0.03 -0.14,-0.03l-9,0c-0.05,0 -0.1,0.01 -0.14,0.03c-0.05,0.02 -0.09,0.05 -0.13,0.08c-0.03,0.03 -0.06,0.08 -0.08,0.12c-0.02,0.05 -0.03,0.1 -0.03,0.15l0,1.89l-5.62,0l0,-1.89c0,-0.05 -0.01,-0.1 -0.03,-0.15c-0.02,-0.04 -0.05,-0.09 -0.08,-0.12c-0.04,-0.03 -0.08,-0.06 -0.12,-0.08c-0.05,-0.02 -0.1,-0.03 -0.15,-0.03l-9,0c-0.05,0 -0.09,0.01 -0.14,0.03c-0.05,0.02 -0.09,0.05 -0.12,0.08c-0.04,0.03 -0.07,0.08 -0.08,0.12c-0.02,0.05 -0.03,0.1 -0.03,0.15l0,1.89l-5.63,0l0,-1.89c0,-0.05 -0.01,-0.1 -0.03,-0.15c-0.02,-0.04 -0.04,-0.09 -0.08,-0.12c-0.03,-0.03 -0.07,-0.06 -0.12,-0.08c-0.04,-0.02 -0.09,-0.03 -0.14,-0.03l-9,0c-0.05,0 -0.1,0.01 -0.15,0.03c-0.04,0.02 -0.08,0.05 -0.12,0.08c-0.03,0.03 -0.06,0.08 -0.08,0.12c-0.02,0.05 -0.03,0.1 -0.03,0.15l0,1.89l-5.62,0l0,-1.89c0,-0.05 -0.01,-0.1 -0.03,-0.15c-0.02,-0.04 -0.05,-0.09 -0.08,-0.12c-0.04,-0.03 -0.08,-0.06 -0.13,-0.08c-0.04,-0.02 -0.09,-0.03 -0.14,-0.03l-9,0c-0.05,0 -0.1,0.01 -0.14,0.03c-0.05,0.02 -0.09,0.05 -0.13,0.08c-0.03,0.03 -0.06,0.08 -0.08,0.12c-0.02,0.05 -0.02,0.1 -0.02,0.15l0,1.89l-5.63,0l0,-1.89c0,-0.05 -0.01,-0.1 -0.03,-0.15c-0.02,-0.04 -0.05,-0.09 -0.08,-0.12c-0.04,-0.03 -0.08,-0.06 -0.12,-0.08c-0.05,-0.02 -0.1,-0.03 -0.15,-0.03l-70.5,0c-0.05,0 -0.1,0.01 -0.15,0.03c-0.04,0.02 -0.08,0.05 -0.12,0.08c-0.03,0.03 -0.06,0.08 -0.08,0.12c-0.02,0.05 -0.03,0.1 -0.03,0.15l0,1.89l-5.62,0l0,-1.89c0,-0.05 -0.01,-0.1 -0.03,-0.15c-0.02,-0.04 -0.05,-0.09 -0.08,-0.12c-0.04,-0.03 -0.08,-0.06 -0.12,-0.08c-0.05,-0.02 -0.1,-0.03 -0.15,-0.03l-9,0c-0.05,0 -0.1,0.01 -0.14,0.03c-0.05,0.02 -0.09,0.05 -0.12,0.08c-0.04,0.03 -0.07,0.08 -0.09,0.12c-0.02,0.05 -0.02,0.1 -0.02,0.15l0,1.89l-5.63,0l0,-1.89c0,-0.05 -0.01,-0.1 -0.03,-0.15c-0.02,-0.04 -0.05,-0.09 -0.08,-0.12c-0.03,-0.03 -0.08,-0.06 -0.12,-0.08c-0.05,-0.02 -0.1,-0.03 -0.15,-0.03l-9,0c-0.05,0 -0.09,0.01 -0.14,0.03c-0.05,0.02 -0.09,0.05 -0.12,0.08c-0.04,0.03 -0.06,0.08 -0.08,0.12c-0.02,0.05 -0.03,0.1 -0.03,0.15l0,1.89l-5.63,0l0,-1.89c0,-0.05 -0.01,-0.1 -0.03,-0.15c-0.01,-0.04 -0.04,-0.09 -0.08,-0.12c-0.03,-0.03 -0.07,-0.06 -0.12,-0.08c-0.04,-0.02 -0.09,-0.03 -0.14,-0.03l-9,0c-0.05,0 -0.1,0.01 -0.15,0.03c-0.04,0.02 -0.08,0.05 -0.12,0.08c-0.03,0.03 -0.06,0.08 -0.08,0.12c-0.02,0.05 -0.03,0.1 -0.03,0.15l0,1.89l-5.62,0l0,-1.89c0,-0.05 -0.01,-0.1 -0.03,-0.15c-0.02,-0.04 -0.05,-0.09 -0.08,-0.12c-0.04,-0.03 -0.08,-0.06 -0.12,-0.08c-0.05,-0.02 -0.1,-0.03 -0.15,-0.03l-9,0c-0.05,0 -0.1,0.01 -0.14,0.03c-0.05,0.02 -0.09,0.05 -0.12,0.08c-0.04,0.03 -0.07,0.08 -0.09,0.12c-0.01,0.05 -0.02,0.1 -0.02,0.15l0,1.89l-5.63,0l0,-1.89c0,-0.05 -0.01,-0.1 -0.03,-0.15c-0.02,-0.04 -0.04,-0.09 -0.08,-0.12c-0.03,-0.03 -0.08,-0.06 -0.12,-0.08c-0.05,-0.02 -0.1,-0.03 -0.14,-0.03l-9.01,0c-0.05,0 -0.09,0.01 -0.14,0.03c-0.04,0.02 -0.09,0.05 -0.12,0.08c-0.04,0.03 -0.06,0.08 -0.08,0.12c-0.02,0.05 -0.03,0.1 -0.03,0.15l0,1.89l-5.63,0l0,-1.89c0,-0.05 -0.01,-0.1 -0.02,-0.15c-0.02,-0.04 -0.05,-0.09 -0.09,-0.12c-0.03,-0.03 -0.07,-0.06 -0.12,-0.08c-0.04,-0.02 -0.09,-0.03 -0.14,-0.03l-9,0c-0.05,0 -0.1,0.01 -0.15,0.03c-0.04,0.02 -0.08,0.05 -0.12,0.08c-0.03,0.03 -0.06,0.08 -0.08,0.12c-0.02,0.05 -0.03,0.1 -0.03,0.15l0,1.89l-17.25,0c-1.18,0 -2.35,0.23 -3.44,0.69c-1.1,0.45 -2.09,1.11 -2.92,1.95c-0.84,0.84 -1.5,1.83 -1.95,2.93c-0.46,1.09 -0.69,2.26 -0.69,3.45l0,4.08c0,2.39 0.95,4.68 2.64,6.37c1.68,1.69 3.97,2.64 6.36,2.64l299.28,0c1.18,0 2.35,-0.23 3.45,-0.68c1.09,-0.46 2.08,-1.12 2.92,-1.96c0.83,-0.83 1.49,-1.83 1.95,-2.92c0.45,-1.1 0.68,-2.27 0.68,-3.45l0,-4.08c0,-1.19 -0.23,-2.36 -0.68,-3.45c-0.46,-1.1 -1.12,-2.09 -1.95,-2.93c-0.84,-0.84 -1.83,-1.5 -2.92,-1.95c-1.1,-0.46 -2.27,-0.69 -3.45,-0.69z" fill="#3F3D56"/>
    <path d="m226.23,116.14l-140.58,0c-0.42,0 -0.83,-0.17 -1.13,-0.47c-0.3,-0.3 -0.47,-0.71 -0.47,-1.13l0,-58.68c0,-0.43 0.17,-0.83 0.47,-1.13c0.3,-0.3 0.71,-0.47 1.13,-0.47l140.58,0c0.42,0 0.83,0.17 1.13,0.47c0.3,0.3 0.46,0.7 0.46,1.13l0,58.68c0,0.42 -0.16,0.83 -0.46,1.13c-0.3,0.3 -0.71,0.47 -1.13,0.47zm-140.58,-60.82c-0.14,0 -0.28,0.06 -0.38,0.16c-0.1,0.1 -0.15,0.24 -0.15,0.38l0,58.68c0,0.14 0.05,0.27 0.15,0.38c0.1,0.1 0.24,0.15 0.38,0.15l140.58,0c0.14,0 0.27,-0.05 0.37,-0.15c0.1,-0.11 0.16,-0.24 0.16,-0.38l0,-58.68c0,-0.14 -0.06,-0.28 -0.16,-0.38c-0.1,-0.1 -0.23,-0.16 -0.37,-0.16l-140.58,0z" fill="#3F3D56"/>
    <path d="m101.63,88.4l-6.39,0c-0.43,0 -0.83,-0.17 -1.13,-0.47c-0.3,-0.3 -0.47,-0.71 -0.47,-1.13l0,-6.4c0,-0.43 0.17,-0.83 0.47,-1.13c0.3,-0.3 0.7,-0.47 1.13,-0.47l6.39,0c0.42,0 0.82,0.17 1.12,0.47c0.3,0.3 0.47,0.7 0.47,1.13l0,6.4c0,0.42 -0.17,0.83 -0.47,1.13c-0.3,0.3 -0.7,0.47 -1.12,0.47zm-6.39,-8.54c-0.15,0 -0.28,0.06 -0.38,0.16c-0.1,0.1 -0.16,0.24 -0.16,0.38l0,6.4c0,0.14 0.06,0.28 0.16,0.38c0.1,0.1 0.23,0.15 0.38,0.15l6.39,0c0.14,0 0.27,-0.05 0.37,-0.15c0.1,-0.1 0.16,-0.24 0.16,-0.38l0,-6.4c0,-0.14 -0.06,-0.28 -0.16,-0.38c-0.1,-0.1 -0.23,-0.16 -0.37,-0.16l-6.39,0z" fill="#3F3D56"/>
    <path d="m215.58,87.33l-121.41,0l0,1.07l121.41,0l0,-1.07z" fill="#3F3D56"/>
    <path d="m531.34,143.88l-390.31,0l0,1.07l390.31,0l0,-1.07z" fill="#3F3D56"/>
    <path d="m141.03,151.35c4.12,0 7.45,-3.35 7.45,-7.47c0,-4.13 -3.33,-7.47 -7.45,-7.47c-4.12,0 -7.46,3.34 -7.46,7.47c0,4.12 3.34,7.47 7.46,7.47z" fill="#3F3D56"/>
    <path d="m531.34,150.81c3.24,0 5.86,-2.62 5.86,-5.87c0,-3.23 -2.62,-5.86 -5.86,-5.86c-3.23,0 -5.86,2.63 -5.86,5.86c0,3.25 2.63,5.87 5.86,5.87z" fill="#3F3D56"/>
    <path d="m560.1,268.71c3.23,0 5.85,-2.63 5.85,-5.87c0,-3.24 -2.62,-5.87 -5.85,-5.87c-3.24,0 -5.86,2.63 -5.86,5.87c0,3.24 2.62,5.87 5.86,5.87z" fill="#3F3D56"/>
    <path d="m171.38,268.71c3.24,0 5.86,-2.63 5.86,-5.87c0,-3.24 -2.62,-5.87 -5.86,-5.87c-3.23,0 -5.86,2.63 -5.86,5.87c0,3.24 2.63,5.87 5.86,5.87z" fill="#3F3D56"/>
   </g>
   <defs>
    <clipPath id="svg_9">
     <rect fill="white" height="369" width="586"/>
    </clipPath>
   </defs>
  </symbol>
 </defs>
 <g class="layer">
  <title>Layer 1</title>
  <circle cx="303" cy="303" fill="url(#paint0_radial_1_56)" fill-opacity="0.2" id="svg_1" r="303"/>
  <circle cx="303" cy="303" fill="url(#paint1_linear_1_56)" fill-opacity="0.2" id="svg_2" r="303" transform="matrix(1 0 0 1 0 0)"/>
  <use id="svg_6" transform="matrix(1.03479 0 0 1.03479 -246.76 -205.41)" x="266.82" xlink:href="#svg_5" y="227.82"/>
  <use id="svg_11" transform="matrix(0.987758 0 0 0.987758 580.83 -73.4489)" x="-573.77" xlink:href="#svg_10" y="188.43"/>
 </g>
</svg>