<?xml version="1.0"?>
<svg width="606" height="606" xmlns="http://www.w3.org/2000/svg" xmlns:svg="http://www.w3.org/2000/svg" xmlns:xlink="http://www.w3.org/1999/xlink">
 <defs>
  <radialGradient cx="0" cy="0" gradientTransform="translate(303 303) rotate(90) scale(303)" gradientUnits="userSpaceOnUse" id="paint0_radial_1_56" r="1">
   <stop stop-color="#444CE7" stop-opacity="0.81"/>
   <stop offset="1" stop-color="#444CE7" stop-opacity="0.29"/>
  </radialGradient>
  <linearGradient id="paint1_linear_1_56" x1="0.29" x2="0.6" y1="0" y2="0.99">
   <stop stop-color="#444CE7" stop-opacity="0.81"/>
   <stop offset="1" stop-opacity="0"/>
  </linearGradient>
  <symbol height="528" id="svg_5" viewBox="0 0 528 528" width="528" xmlns="http://www.w3.org/2000/svg">
   <circle cx="264" cy="264" fill="url(#svg_4)" fill-opacity="0.2" id="svg_7" r="264"/>
   <circle cx="264" cy="264" fill="url(#svg_3)" fill-opacity="0.2" id="svg_8" r="264"/>
   <defs>
    <radialGradient cx="0" cy="0" gradientTransform="translate(264 264) rotate(90) scale(264)" gradientUnits="userSpaceOnUse" id="svg_4" r="1">
     <stop stop-color="#444CE7" stop-opacity="0.81"/>
     <stop offset="1" stop-color="#444CE7" stop-opacity="0.29"/>
    </radialGradient>
    <linearGradient id="svg_3" x1="0.5" x2="0.6" y1="0" y2="0.94">
     <stop stop-color="#A4BCFD"/>
     <stop offset="1" stop-color="#444CE7" stop-opacity="0.81"/>
    </linearGradient>
   </defs>
  </symbol>
  <symbol height="522" id="svg_9" viewBox="0 0 663 522" width="663" xmlns="http://www.w3.org/2000/svg">
   <path d="m218.8,315.97c82.96,0 150.22,-67.18 150.22,-150.06c0,-82.88 -67.26,-150.07 -150.22,-150.07c-82.97,0 -150.22,67.19 -150.22,150.07c0,82.88 67.25,150.06 150.22,150.06z" fill="#F2F2F2"/>
   <path d="m393.01,311.53c15.72,0 28.45,-12.72 28.45,-28.41c0,-15.69 -12.73,-28.42 -28.45,-28.42c-15.7,0 -28.44,12.73 -28.44,28.42c0,15.69 12.74,28.41 28.44,28.41z" fill="#F2F2F2"/>
   <path d="m536.13,375.47c6.38,0 11.55,-5.17 11.55,-11.55c0,-6.37 -5.17,-11.54 -11.55,-11.54c-6.39,0 -11.56,5.17 -11.56,11.54c0,6.38 5.17,11.55 11.56,11.55z" fill="#F2F2F2"/>
   <path d="m338.88,359.49c-71.8,0 -134.26,-53.5 -143.49,-126.48l1.76,-0.23c9.11,72.08 70.82,124.93 141.73,124.93c6.03,0 12.05,-0.38 18.02,-1.14c78.21,-9.87 133.8,-81.46 123.92,-159.58l1.77,-0.23c10,79.1 -46.28,151.59 -125.46,161.58c-6.05,0.76 -12.15,1.15 -18.25,1.15z" fill="#3F3D56"/>
   <path d="m342.74,389.19l-28.27,0c-0.61,0 -1.2,-0.14 -1.75,-0.4c-0.54,-0.26 -1.02,-0.64 -1.39,-1.11c-0.38,-0.46 -0.64,-1 -0.77,-1.58c-0.13,-0.58 -0.13,-1.17 0,-1.75c2.68,-11.83 2.52,-24.12 -0.46,-35.87c-0.21,-0.82 -0.15,-1.67 0.16,-2.45c0.31,-0.78 0.86,-1.43 1.57,-1.88c9.78,-6.05 20.43,-5.86 32.56,0.58c0.55,0.29 1.03,0.7 1.39,1.21c0.37,0.5 0.61,1.08 0.71,1.69c2.01,12.63 2.08,25.48 0.21,38.12c-0.13,0.95 -0.61,1.83 -1.33,2.46c-0.73,0.63 -1.67,0.98 -2.63,0.98z" fill="#A4BCFD"/>
   <path d="m213.85,238.23l-28.27,0c-0.6,0.01 -1.2,-0.13 -1.74,-0.39c-0.55,-0.26 -1.03,-0.65 -1.4,-1.12c-0.37,-0.46 -0.63,-1 -0.77,-1.57c-0.13,-0.58 -0.13,-1.18 0,-1.75c2.69,-11.87 2.52,-24.21 -0.49,-36c-0.19,-0.77 -0.15,-1.59 0.13,-2.34c0.28,-0.75 0.77,-1.4 1.42,-1.87c14.54,-10.44 25.99,-10.14 34.03,0.91c0.36,0.5 0.6,1.08 0.7,1.69c2.15,12.91 2.27,26.07 0.35,39.01c-0.13,0.95 -0.6,1.83 -1.33,2.46c-0.73,0.63 -1.67,0.98 -2.63,0.97z" fill="#CCCCCC"/>
   <path d="m329.53,362.68l-9.73,0c-0.53,0 -1.05,-0.21 -1.43,-0.59c-0.38,-0.38 -0.59,-0.9 -0.59,-1.43c0,-0.54 0.21,-1.05 0.59,-1.43c0.38,-0.38 0.9,-0.6 1.43,-0.6l9.73,0c0.54,0 1.05,0.22 1.43,0.6c0.38,0.38 0.6,0.89 0.6,1.43c0,0.53 -0.22,1.05 -0.6,1.43c-0.38,0.38 -0.89,0.59 -1.43,0.59z" fill="white"/>
   <path d="m341.42,370.69l-21.62,0c-0.53,0 -1.05,-0.22 -1.43,-0.6c-0.38,-0.38 -0.59,-0.89 -0.59,-1.43c0,-0.53 0.21,-1.05 0.59,-1.43c0.38,-0.38 0.9,-0.59 1.43,-0.59l21.62,0c0.54,0 1.05,0.21 1.43,0.59c0.38,0.38 0.59,0.9 0.59,1.43c0,0.54 -0.21,1.05 -0.59,1.43c-0.38,0.38 -0.89,0.6 -1.43,0.6z" fill="white"/>
   <path d="m205.09,209.95l-9.73,0c-0.54,0 -1.05,-0.21 -1.43,-0.59c-0.38,-0.38 -0.59,-0.9 -0.59,-1.43c0,-0.54 0.21,-1.05 0.59,-1.43c0.38,-0.38 0.89,-0.6 1.43,-0.6l9.73,0c0.53,0 1.05,0.22 1.43,0.6c0.38,0.38 0.59,0.89 0.59,1.43c0,0.53 -0.21,1.05 -0.59,1.43c-0.38,0.38 -0.9,0.59 -1.43,0.59z" fill="white"/>
   <path d="m205.09,217.06l-9.73,0c-0.54,0 -1.05,-0.22 -1.43,-0.6c-0.38,-0.38 -0.59,-0.89 -0.59,-1.43c0,-0.53 0.21,-1.05 0.59,-1.43c0.38,-0.38 0.89,-0.59 1.43,-0.59l9.73,0c0.53,0 1.05,0.21 1.43,0.59c0.38,0.38 0.59,0.9 0.59,1.43c0,0.54 -0.21,1.05 -0.59,1.43c-0.38,0.38 -0.9,0.6 -1.43,0.6z" fill="white"/>
   <path d="m205.09,224.16l-9.73,0c-0.54,0 -1.05,-0.21 -1.43,-0.59c-0.38,-0.38 -0.59,-0.9 -0.59,-1.44c0,-0.53 0.21,-1.05 0.59,-1.43c0.38,-0.38 0.89,-0.59 1.43,-0.59l9.73,0c0.53,0 1.05,0.21 1.43,0.59c0.38,0.38 0.59,0.9 0.59,1.43c0,0.54 -0.21,1.06 -0.59,1.44c-0.38,0.38 -0.9,0.59 -1.43,0.59z" fill="white"/>
   <path d="m594.33,271.6l-90.37,0c-2.42,0 -4.75,-0.97 -6.46,-2.68c-1.71,-1.71 -2.67,-4.03 -2.68,-6.45l0,-55.6c0.01,-2.42 0.97,-4.74 2.68,-6.45c1.71,-1.71 4.04,-2.67 6.46,-2.67l90.37,0c2.42,0 4.74,0.96 6.45,2.67c1.72,1.71 2.68,4.03 2.68,6.45l0,55.6c0,2.42 -0.96,4.74 -2.68,6.45c-1.71,1.71 -4.03,2.68 -6.45,2.68z" fill="#E6E6E6"/>
   <path d="m558.42,264.44l-48.11,0c-2.27,-0.01 -4.44,-0.91 -6.05,-2.51c-1.6,-1.6 -2.5,-3.78 -2.5,-6.04l0,-42.44c0,-2.26 0.9,-4.43 2.5,-6.04c1.61,-1.6 3.78,-2.5 6.05,-2.5l77.67,0c2.26,0 4.44,0.9 6.04,2.5c1.61,1.61 2.51,3.78 2.51,6.04l0,12.92c-0.01,10.09 -4.03,19.77 -11.17,26.9c-7.15,7.14 -16.84,11.15 -26.94,11.17z" fill="white"/>
   <path d="m580.23,228.14l-62.17,0c-0.54,0 -1.06,-0.21 -1.43,-0.59c-0.38,-0.38 -0.6,-0.89 -0.6,-1.43c0,-0.54 0.22,-1.05 0.6,-1.43c0.37,-0.38 0.89,-0.6 1.43,-0.6l62.17,0c0.53,0 1.05,0.22 1.43,0.6c0.38,0.38 0.59,0.89 0.59,1.43c0,0.54 -0.21,1.05 -0.59,1.43c-0.38,0.38 -0.9,0.59 -1.43,0.59z" fill="#A4BCFD"/>
   <path d="m527.78,236.15l-9.72,0c-0.54,0 -1.05,-0.22 -1.43,-0.6c-0.38,-0.38 -0.6,-0.89 -0.6,-1.43c0,-0.53 0.22,-1.05 0.6,-1.43c0.38,-0.38 0.89,-0.59 1.43,-0.59l9.72,0c0.54,0 1.06,0.21 1.43,0.59c0.38,0.38 0.6,0.9 0.6,1.43c0,0.54 -0.22,1.05 -0.6,1.43c-0.37,0.38 -0.89,0.6 -1.43,0.6z" fill="#A4BCFD"/>
   <path d="m545.01,244.15l-26.95,0c-0.54,0 -1.06,-0.21 -1.43,-0.59c-0.38,-0.38 -0.6,-0.9 -0.6,-1.43c0,-0.54 0.22,-1.06 0.6,-1.44c0.37,-0.38 0.89,-0.59 1.43,-0.59l26.95,0c0.53,0 1.05,0.21 1.43,0.59c0.38,0.38 0.59,0.9 0.59,1.44c0,0.53 -0.21,1.05 -0.59,1.43c-0.38,0.38 -0.9,0.59 -1.43,0.59z" fill="#A4BCFD"/>
   <path d="m491.67,215.74c10.56,0 19.12,-8.55 19.12,-19.1c0,-10.55 -8.56,-19.1 -19.12,-19.1c-10.56,0 -19.12,8.55 -19.12,19.1c0,10.55 8.56,19.1 19.12,19.1z" fill="#3F3D56"/>
   <path d="m275.27,51.37c1.27,-6.42 3.79,-12.52 7.41,-17.97c3.63,-5.44 8.3,-10.12 13.73,-13.76c10.98,-7.36 24.44,-10.06 37.41,-7.51c6.43,1.27 12.54,3.78 17.99,7.41c5.45,3.62 10.13,8.28 13.78,13.71c3.65,5.43 6.19,11.53 7.47,17.94c1.29,6.41 1.31,13.01 0.04,19.43l-1.74,-0.34c2.46,-12.5 -0.15,-25.46 -7.25,-36.04c-7.1,-10.58 -18.12,-17.9 -30.63,-20.37c-12.51,-2.46 -25.49,0.15 -36.08,7.24c-10.58,7.1 -17.92,18.1 -20.38,30.6l-1.75,-0.34z" fill="#3F3D56"/>
   <path d="m294.2,82.79l-28.24,1.17c-0.6,0.02 -1.21,-0.09 -1.76,-0.33c-0.56,-0.24 -1.05,-0.6 -1.44,-1.05c-0.39,-0.45 -0.68,-0.98 -0.83,-1.55c-0.16,-0.57 -0.18,-1.16 -0.08,-1.74c2.17,-11.81 1.54,-23.96 -1.84,-35.48c-0.26,-0.88 -0.21,-1.83 0.15,-2.67c0.36,-0.85 1,-1.55 1.81,-1.97c11.57,-6.01 22.41,-6.31 32.22,-0.91c0.51,0.28 0.96,0.67 1.31,1.14c0.35,0.47 0.59,1.01 0.71,1.58c2.55,12.57 3.16,25.45 1.81,38.21c-0.09,0.96 -0.53,1.85 -1.23,2.51c-0.7,0.67 -1.62,1.05 -2.59,1.09z" fill="#A4BCFD"/>
   <path d="m293.01,64.32l-21.6,0.89c-0.26,0.02 -0.53,-0.03 -0.78,-0.12c-0.25,-0.09 -0.48,-0.23 -0.68,-0.41c-0.19,-0.18 -0.35,-0.4 -0.46,-0.64c-0.11,-0.24 -0.18,-0.5 -0.19,-0.77c-0.01,-0.26 0.03,-0.53 0.12,-0.78c0.09,-0.25 0.23,-0.48 0.41,-0.67c0.19,-0.2 0.4,-0.36 0.65,-0.47c0.24,-0.11 0.5,-0.17 0.77,-0.18l21.59,-0.9c0.27,-0.01 0.53,0.03 0.78,0.13c0.25,0.09 0.48,0.23 0.68,0.41c0.19,0.18 0.35,0.39 0.46,0.64c0.12,0.24 0.18,0.5 0.19,0.76c0.01,0.27 -0.03,0.53 -0.12,0.78c-0.09,0.25 -0.23,0.48 -0.41,0.68c-0.18,0.19 -0.4,0.35 -0.64,0.46c-0.24,0.12 -0.51,0.18 -0.77,0.19z" fill="white"/>
   <path d="m292.71,57.22l-21.59,0.9c-0.54,0.02 -1.06,-0.17 -1.46,-0.54c-0.4,-0.36 -0.63,-0.87 -0.65,-1.4c-0.02,-0.54 0.17,-1.06 0.53,-1.46c0.37,-0.39 0.87,-0.63 1.41,-0.65l21.6,-0.89c0.53,-0.03 1.06,0.17 1.45,0.53c0.4,0.36 0.63,0.87 0.66,1.41c0.02,0.53 -0.17,1.06 -0.54,1.45c-0.36,0.4 -0.87,0.63 -1.41,0.65z" fill="white"/>
   <path d="m479.05,73.85l-90.36,0c-2.43,0 -4.75,-0.96 -6.46,-2.67c-1.71,-1.71 -2.68,-4.03 -2.68,-6.45l0,-55.6c0,-2.42 0.97,-4.74 2.68,-6.45c1.71,-1.71 4.03,-2.68 6.46,-2.68l90.36,0c2.43,0 4.75,0.97 6.46,2.68c1.71,1.71 2.68,4.03 2.68,6.45l0,55.6c0,2.42 -0.97,4.74 -2.68,6.45c-1.71,1.71 -4.03,2.67 -6.46,2.67z" fill="#E6E6E6"/>
   <path d="m443.15,66.69l-48.11,0c-2.27,0 -4.44,-0.9 -6.05,-2.51c-1.6,-1.6 -2.5,-3.77 -2.51,-6.04l0,-42.43c0.01,-2.27 0.91,-4.44 2.51,-6.04c1.61,-1.6 3.78,-2.51 6.05,-2.51l77.66,0c2.27,0 4.44,0.91 6.05,2.51c1.6,1.6 2.5,3.77 2.51,6.04l0,12.91c-0.01,10.09 -4.03,19.77 -11.18,26.91c-7.14,7.13 -16.83,11.15 -26.93,11.16z" fill="white"/>
   <path d="m464.95,30.4l-62.16,0c-0.54,0 -1.06,-0.21 -1.44,-0.59c-0.38,-0.38 -0.59,-0.9 -0.59,-1.44c0,-0.53 0.21,-1.05 0.59,-1.43c0.38,-0.38 0.9,-0.59 1.44,-0.59l62.16,0c0.54,0 1.06,0.21 1.44,0.59c0.38,0.38 0.59,0.9 0.59,1.43c0,0.54 -0.21,1.06 -0.59,1.44c-0.38,0.38 -0.9,0.59 -1.44,0.59z" fill="#A4BCFD"/>
   <path d="m412.51,38.4l-9.72,0c-0.54,0 -1.06,-0.21 -1.44,-0.59c-0.37,-0.38 -0.59,-0.9 -0.59,-1.43c0,-0.54 0.22,-1.05 0.59,-1.43c0.38,-0.38 0.9,-0.6 1.44,-0.6l9.72,0c0.54,0 1.05,0.22 1.43,0.6c0.38,0.38 0.59,0.89 0.59,1.43c0,0.53 -0.21,1.05 -0.59,1.43c-0.38,0.38 -0.89,0.59 -1.43,0.59z" fill="#A4BCFD"/>
   <path d="m429.73,46.41l-26.94,0c-0.54,0 -1.06,-0.22 -1.44,-0.6c-0.38,-0.38 -0.59,-0.89 -0.59,-1.43c0,-0.54 0.21,-1.05 0.59,-1.43c0.38,-0.38 0.9,-0.6 1.44,-0.6l26.94,0c0.54,0.01 1.06,0.22 1.44,0.6c0.37,0.38 0.59,0.89 0.59,1.43c0,0.54 -0.22,1.05 -0.59,1.43c-0.38,0.38 -0.9,0.59 -1.44,0.6z" fill="#A4BCFD"/>
   <path d="m390.29,83.48c5.58,-8.96 2.82,-20.74 -6.14,-26.3c-8.97,-5.57 -20.76,-2.82 -26.33,6.13c-5.57,8.96 -2.82,20.74 6.14,26.3c8.97,5.57 20.76,2.82 26.33,-6.13z" fill="#3F3D56"/>
   <path d="m119.4,222.37c-7.84,-20.71 -7.13,-43.69 1.99,-63.87c9.11,-20.19 25.88,-35.93 46.61,-43.77c20.74,-7.83 43.74,-7.12 63.94,1.99c20.21,9.11 35.97,25.86 43.81,46.57l-1.66,0.63c-3.8,-10.04 -9.54,-19.23 -16.9,-27.05c-7.36,-7.82 -16.18,-14.12 -25.98,-18.53c-9.79,-4.41 -20.36,-6.86 -31.09,-7.19c-10.74,-0.33 -21.44,1.45 -31.49,5.25c-10.04,3.79 -19.24,9.53 -27.07,16.88c-7.83,7.35 -14.13,16.17 -18.55,25.95c-4.42,9.78 -6.86,20.34 -7.2,31.06c-0.33,10.73 1.45,21.42 5.25,31.45l-1.66,0.63z" fill="#3F3D56"/>
   <path d="m192.52,139.67l-28.27,0c-0.61,0 -1.2,-0.13 -1.75,-0.4c-0.54,-0.26 -1.02,-0.64 -1.39,-1.11c-0.37,-0.46 -0.64,-1 -0.77,-1.58c-0.13,-0.57 -0.13,-1.17 0,-1.75c2.67,-11.8 2.52,-24.06 -0.44,-35.79c-0.21,-0.83 -0.15,-1.71 0.18,-2.5c0.33,-0.79 0.91,-1.45 1.65,-1.89c10.24,-5.95 21.17,-5.77 32.5,0.55c0.53,0.29 1,0.7 1.35,1.2c0.35,0.49 0.59,1.07 0.69,1.67c2.01,12.63 2.08,25.5 0.21,38.16c-0.13,0.96 -0.61,1.83 -1.33,2.46c-0.73,0.64 -1.67,0.98 -2.63,0.98z" fill="#A4BCFD"/>
   <path d="m179.31,112.28l-9.73,0c-0.53,0 -1.05,-0.22 -1.43,-0.6c-0.38,-0.38 -0.59,-0.89 -0.59,-1.43c0,-0.53 0.21,-1.05 0.59,-1.43c0.38,-0.38 0.9,-0.59 1.43,-0.59l9.73,0c0.54,0 1.05,0.21 1.43,0.59c0.38,0.38 0.59,0.9 0.59,1.43c0,0.54 -0.21,1.05 -0.59,1.43c-0.38,0.38 -0.89,0.6 -1.43,0.6z" fill="white"/>
   <path d="m191.2,120.28l-21.62,0c-0.53,0 -1.05,-0.21 -1.43,-0.59c-0.38,-0.38 -0.59,-0.9 -0.59,-1.44c0,-0.53 0.21,-1.05 0.59,-1.43c0.38,-0.38 0.9,-0.59 1.43,-0.59l21.62,0c0.54,0 1.05,0.21 1.43,0.59c0.38,0.38 0.59,0.9 0.59,1.43c0,0.54 -0.21,1.06 -0.59,1.44c-0.38,0.38 -0.89,0.59 -1.43,0.59z" fill="white"/>
   <path d="m99.5,221.25l-90.37,0c-2.42,0 -4.74,-0.96 -6.45,-2.67c-1.71,-1.71 -2.68,-4.03 -2.68,-6.45l0,-55.6c0,-2.42 0.97,-4.74 2.68,-6.45c1.71,-1.71 4.03,-2.67 6.45,-2.68l90.37,0c2.42,0.01 4.75,0.97 6.46,2.68c1.71,1.71 2.68,4.03 2.68,6.45l0,55.6c0,2.42 -0.97,4.74 -2.68,6.45c-1.71,1.71 -4.04,2.67 -6.46,2.67z" fill="#E6E6E6"/>
   <path d="m63.6,214.09l-48.11,0c-2.27,0 -4.45,-0.9 -6.05,-2.5c-1.6,-1.61 -2.51,-3.78 -2.51,-6.04l0,-42.44c0,-2.27 0.91,-4.44 2.51,-6.04c1.6,-1.6 3.78,-2.5 6.05,-2.51l77.66,0c2.27,0.01 4.44,0.91 6.05,2.51c1.6,1.6 2.5,3.77 2.51,6.04l0,12.91c-0.02,10.1 -4.03,19.77 -11.18,26.91c-7.14,7.14 -16.83,11.15 -26.93,11.16z" fill="white"/>
   <path d="m85.4,177.8l-62.17,0c-0.53,0 -1.05,-0.21 -1.43,-0.59c-0.38,-0.38 -0.59,-0.9 -0.59,-1.43c0,-0.54 0.21,-1.06 0.59,-1.44c0.38,-0.38 0.9,-0.59 1.43,-0.59l62.17,0c0.54,0 1.06,0.21 1.44,0.59c0.38,0.38 0.59,0.9 0.59,1.44c0,0.53 -0.21,1.05 -0.59,1.43c-0.38,0.38 -0.9,0.59 -1.44,0.59z" fill="#A4BCFD"/>
   <path d="m32.96,185.8l-9.73,0c-0.53,0 -1.05,-0.21 -1.43,-0.59c-0.38,-0.38 -0.59,-0.9 -0.59,-1.43c0,-0.54 0.21,-1.05 0.59,-1.43c0.38,-0.38 0.9,-0.6 1.43,-0.6l9.73,0c0.54,0 1.05,0.22 1.43,0.6c0.38,0.38 0.59,0.89 0.59,1.43c0,0.53 -0.21,1.05 -0.59,1.43c-0.38,0.38 -0.89,0.59 -1.43,0.59z" fill="#A4BCFD"/>
   <path d="m50.18,193.81l-26.95,0c-0.53,0 -1.05,-0.22 -1.43,-0.6c-0.38,-0.38 -0.59,-0.89 -0.59,-1.43c0,-0.53 0.21,-1.05 0.59,-1.43c0.38,-0.38 0.9,-0.59 1.43,-0.59l26.95,0c0.54,0 1.06,0.21 1.44,0.59c0.38,0.38 0.59,0.9 0.59,1.43c0,0.54 -0.21,1.06 -0.59,1.43c-0.38,0.38 -0.9,0.6 -1.44,0.6z" fill="#A4BCFD"/>
   <path d="m135.18,229.1c5.58,-8.95 2.83,-20.73 -6.14,-26.3c-8.97,-5.56 -20.75,-2.82 -26.33,6.14c-5.57,8.96 -2.82,20.73 6.15,26.3c8.96,5.57 20.75,2.82 26.32,-6.14z" fill="#3F3D56"/>
   <path d="m289.4,192.95l-28.27,0c-0.6,0 -1.19,-0.14 -1.74,-0.4c-0.54,-0.26 -1.02,-0.64 -1.4,-1.11c-0.37,-0.47 -0.63,-1 -0.76,-1.58c-0.13,-0.58 -0.13,-1.17 0,-1.75c2.67,-11.78 2.52,-24.02 -0.43,-35.73c-0.21,-0.84 -0.14,-1.73 0.2,-2.53c0.34,-0.8 0.94,-1.46 1.69,-1.89c13.73,-7.86 24.61,-7.64 33.24,0.66c0.61,0.59 1.01,1.36 1.14,2.2c2.1,12.8 2.2,25.86 0.3,38.69c-0.13,0.96 -0.61,1.83 -1.34,2.46c-0.73,0.63 -1.66,0.98 -2.63,0.98z" fill="#FF6584"/>
   <path d="m277.97,166.44l-9.72,0c-0.54,0 -1.05,-0.21 -1.43,-0.59c-0.38,-0.38 -0.59,-0.9 -0.59,-1.43c0,-0.54 0.21,-1.05 0.59,-1.43c0.38,-0.38 0.89,-0.6 1.43,-0.6l9.72,0c0.54,0 1.06,0.22 1.43,0.6c0.38,0.38 0.6,0.89 0.6,1.43c0,0.53 -0.22,1.05 -0.6,1.43c-0.37,0.38 -0.89,0.59 -1.43,0.59z" fill="white"/>
   <path d="m289.86,174.45l-21.61,0c-0.54,0 -1.05,-0.22 -1.44,-0.6c-0.37,-0.38 -0.59,-0.89 -0.59,-1.43c0,-0.54 0.22,-1.05 0.59,-1.43c0.39,-0.38 0.9,-0.59 1.44,-0.59l21.61,0c0.54,0 1.06,0.21 1.44,0.59c0.38,0.38 0.59,0.89 0.59,1.43c0,0.54 -0.21,1.05 -0.59,1.43c-0.38,0.38 -0.9,0.59 -1.44,0.6z" fill="white"/>
  </symbol>
 </defs>
 <g class="layer">
  <title>Layer 1</title>
  <circle cx="303" cy="303" fill="url(#paint0_radial_1_56)" fill-opacity="0.2" id="svg_1" r="303"/>
  <circle cx="303" cy="303" fill="url(#paint1_linear_1_56)" fill-opacity="0.2" id="svg_2" r="303" transform="matrix(1 0 0 1 0 0)"/>
  <use id="svg_6" transform="matrix(1.03479 0 0 1.03479 -246.76 -205.41)" x="266.82" xlink:href="#svg_5" y="227.82"/>
  <use id="svg_10" transform="matrix(0.990533 0 0 0.990533 673.027 -169.973)" x="-675.87" xlink:href="#svg_9" y="262.01"/>
 </g>
</svg>